<svg xmlns="http://www.w3.org/2000/svg" xmlns:xlink="http://www.w3.org/1999/xlink" width="88.753" height="85.188" viewBox="0 0 88.753 85.188"><defs><style>.a{fill:#242424;}.b{clip-path:url(#a);}</style><clipPath id="a"><rect class="a" width="88.753" height="85.188"/></clipPath></defs><path class="a" d="M105.11,71.821H76.217V69.057h26.129V14.423H76.217V11.659H105.11Z" transform="translate(-22.013 -3.367)"/><path class="a" d="M36.846,71.821H7.953V11.659H36.846v2.764H10.717V69.057H36.846Z" transform="translate(-2.297 -3.367)"/><path class="a" d="M101.982,17.022v2.764h4.274V76.263H70.172v2.764H109.02v-62Z" transform="translate(-20.267 -4.916)"/><path class="a" d="M0,17.022v62H38.848V76.263H2.764V19.786H7.038V17.022Z" transform="translate(0 -4.916)"/><rect class="a" width="2.764" height="18.191" transform="translate(42.994 49.009)"/><rect class="a" width="2.764" height="17.99" transform="translate(42.994 9.673)"/><rect class="a" width="2.764" height="3.071" transform="translate(42.994 30.594)"/><rect class="a" width="2.764" height="3.071" transform="translate(42.994 36.737)"/><rect class="a" width="2.764" height="3.071" transform="translate(42.994 42.878)"/><path class="a" d="M63.738,13.6V76.29l-4.145,7.255L55.445,76.29V13.6H52.681V77.023l6.911,12.093L66.5,77.023V13.6Z" transform="translate(-15.215 -3.929)"/><path class="a" d="M64.307,100.2l-4.55-4.551L55.206,100.2l-1.954-1.954,6.505-6.506,6.5,6.506Z" transform="translate(-15.38 -26.497)"/><g class="b"><path class="a" d="M66.5,11.056H52.681V4.147A4.145,4.145,0,0,1,56.827,0h5.529A4.145,4.145,0,0,1,66.5,4.147ZM55.445,8.293h8.292V4.147a1.382,1.382,0,0,0-1.382-1.383H56.827a1.38,1.38,0,0,0-1.382,1.383Z" transform="translate(-15.215 0)"/><rect class="a" width="6.291" height="2.764" transform="translate(21.492 36.379)"/><rect class="a" width="6.766" height="2.764" transform="translate(27.783 47.641)"/><rect class="a" width="6.766" height="2.764" transform="translate(27.783 53.267)"/><rect class="a" width="13.057" height="2.764" transform="translate(21.493 42.006)"/><rect class="a" width="6.766" height="2.764" transform="translate(27.783 25.118)"/><rect class="a" width="6.766" height="2.764" transform="translate(27.783 30.748)"/><rect class="a" width="13.057" height="2.764" transform="translate(21.493 19.486)"/><rect class="a" width="6.291" height="2.764" transform="translate(60.969 36.375)"/><rect class="a" width="6.766" height="2.764" transform="translate(54.203 25.113)"/><rect class="a" width="6.766" height="2.764" transform="translate(54.203 19.486)"/><rect class="a" width="13.057" height="2.764" transform="translate(54.204 30.748)"/><rect class="a" width="6.766" height="2.764" transform="translate(54.203 47.635)"/><rect class="a" width="6.766" height="2.764" transform="translate(54.203 42.006)"/><rect class="a" width="13.057" height="2.764" transform="translate(54.204 53.267)"/><path class="a" d="M103.788,44.681a5.07,5.07,0,0,1-5.067-5.067V24.249a2.3,2.3,0,0,0-2.3-2.3H94.576V19.182h1.842a5.066,5.066,0,0,1,5.067,5.067V39.614a2.3,2.3,0,0,0,2.3,2.3Z" transform="translate(-27.316 -5.54)"/><path class="a" d="M96.418,76.65H94.576V73.886h1.842a2.3,2.3,0,0,0,2.3-2.3V56.218a5.067,5.067,0,0,1,5.067-5.067v2.764a2.3,2.3,0,0,0-2.3,2.3V71.582a5.067,5.067,0,0,1-5.067,5.067" transform="translate(-27.316 -14.774)"/><path class="a" d="M17.266,44.681V41.917a2.305,2.305,0,0,0,2.3-2.3V24.249a5.067,5.067,0,0,1,5.067-5.067h1.842v2.764H24.637a2.305,2.305,0,0,0-2.3,2.3V39.614a5.069,5.069,0,0,1-5.067,5.067" transform="translate(-4.987 -5.54)"/><path class="a" d="M26.479,76.65H24.637a5.065,5.065,0,0,1-5.067-5.067V56.218a2.3,2.3,0,0,0-2.3-2.3V51.151a5.065,5.065,0,0,1,5.067,5.067V71.582a2.3,2.3,0,0,0,2.3,2.3h1.842Z" transform="translate(-4.987 -14.774)"/></g></svg>