<svg xmlns="http://www.w3.org/2000/svg" xmlns:xlink="http://www.w3.org/1999/xlink" width="87.73" height="90.479" viewBox="0 0 87.73 90.479"><defs><style>.a{fill:#242424;}.b{clip-path:url(#a);}</style><clipPath id="a"><rect class="a" width="87.73" height="90.479"/></clipPath></defs><g class="b"><path class="a" d="M84.863,55.675H76.381V52.767h8.481l-.04-31.061-81.955.04.039,31.062,5.615-.041v2.909H2.868A2.867,2.867,0,0,1,0,52.808v-31.1a2.867,2.867,0,0,1,2.868-2.868H84.863a2.867,2.867,0,0,1,2.868,2.868v31.1a2.868,2.868,0,0,1-2.868,2.868" transform="translate(0 -4.741)"/><rect class="a" width="25.447" height="2.909" transform="translate(31.141 48.026)"/><path class="a" d="M76.586,74.553H73.677V53.347a4.282,4.282,0,0,1,8.564,0V67.484H79.332V53.347a1.368,1.368,0,0,0-.4-.973,1.41,1.41,0,0,0-1.943,0,1.366,1.366,0,0,0-.4.97Z" transform="translate(-18.543 -12.349)"/><path class="a" d="M89.8,70.554H86.889V65.546a1.364,1.364,0,0,0-.4-.972,1.407,1.407,0,0,0-1.942,0,1.368,1.368,0,0,0-.4.971v5.008H81.235V65.546a4.282,4.282,0,1,1,8.563,0Z" transform="translate(-20.445 -15.419)"/><path class="a" d="M97.354,70.554H94.445V65.546a1.364,1.364,0,0,0-.4-.972,1.407,1.407,0,0,0-1.942,0,1.368,1.368,0,0,0-.4.971v5.008H88.791V65.546a4.282,4.282,0,1,1,8.563,0Z" transform="translate(-22.347 -15.419)"/><path class="a" d="M100.67,96.734H97.761v-4.5L102,80.919V68.46a1.37,1.37,0,0,0-.4-.973,1.41,1.41,0,0,0-1.943,0,1.37,1.37,0,0,0-.4.97v2.827H96.348V68.46a4.282,4.282,0,1,1,8.563,0V81.447L100.67,92.758Z" transform="translate(-24.249 -16.152)"/><path class="a" d="M76.1,98.636H73.189V94.982c-1.6-1.7-7.068-7.911-7.068-13.278V76.017a4.282,4.282,0,1,1,8.563,0H71.776a1.37,1.37,0,0,0-.4-.973,1.409,1.409,0,0,0-1.943,0,1.365,1.365,0,0,0-.4.97V81.7c0,4.108,4.8,9.812,6.643,11.664l.425.425Z" transform="translate(-16.641 -18.054)"/><path class="a" d="M96.379,117.092H93.47v-8.483l-16.925.041.041,8.442H73.678v-8.483a2.868,2.868,0,0,1,2.868-2.868H93.51a2.869,2.869,0,0,1,2.869,2.868Z" transform="translate(-18.543 -26.613)"/><path class="a" d="M40.679,75.5H37.77V57.125a1.367,1.367,0,0,0-.4-.972,1.407,1.407,0,0,0-1.941,0,1.366,1.366,0,0,0-.4.97v11.31H32.116V57.125a4.282,4.282,0,1,1,8.563,0Z" transform="translate(-8.083 -13.3)"/><path class="a" d="M33.122,67.483H30.213V53.346a1.365,1.365,0,0,0-.4-.971,1.408,1.408,0,0,0-1.941,0,1.366,1.366,0,0,0-.4.97V67.483H24.559V53.346a4.282,4.282,0,0,1,8.563,0Z" transform="translate(-6.181 -12.349)"/><path class="a" d="M25.565,68.434H22.656V57.125a1.367,1.367,0,0,0-.4-.972,1.408,1.408,0,0,0-1.941,0,1.366,1.366,0,0,0-.4.971V68.434H17V57.125a4.282,4.282,0,0,1,8.563,0Z" transform="translate(-4.279 -13.299)"/><path class="a" d="M16.6,94.832H13.686V90.856L9.445,79.545V60.9a4.282,4.282,0,0,1,8.564,0v8.482H15.1V60.9a1.368,1.368,0,0,0-.4-.972,1.41,1.41,0,0,0-1.943,0,1.369,1.369,0,0,0-.4.971V79.017L16.6,90.328Z" transform="translate(-2.377 -14.25)"/><path class="a" d="M40.692,98.636H37.783V93.794l.426-.427c1.848-1.852,6.643-7.556,6.643-11.664V76.017a1.373,1.373,0,0,0-.4-.973,1.408,1.408,0,0,0-1.942,0,1.36,1.36,0,0,0-.4.97H39.2a4.282,4.282,0,1,1,8.563,0V81.7c0,5.368-5.466,11.575-7.068,13.278Z" transform="translate(-9.509 -18.054)"/><path class="a" d="M35.925,117.092H33.016v-8.483l-16.923.041.04,8.442H13.225v-8.483a2.867,2.867,0,0,1,2.868-2.868H33.057a2.867,2.867,0,0,1,2.868,2.868Z" transform="translate(-3.328 -26.613)"/><path class="a" d="M54.83,15.551H51.921V12.724a1.373,1.373,0,0,0-1.374-1.374H42.066a4.282,4.282,0,1,1,0-8.563H59.029A1.373,1.373,0,0,0,60.4,1.414V0h2.909V1.414a4.252,4.252,0,0,1-1.254,3.025,4.249,4.249,0,0,1-3.028,1.256H42.066a1.374,1.374,0,0,0,0,2.747h8.481a4.286,4.286,0,0,1,4.283,4.282Z" transform="translate(-9.509)"/><rect class="a" width="2.826" height="2.908" transform="translate(8.523 19.752)"/><rect class="a" width="2.828" height="2.908" transform="translate(14.178 19.752)"/><rect class="a" width="2.828" height="2.908" transform="translate(19.832 19.752)"/><rect class="a" width="2.828" height="2.908" transform="translate(25.487 19.752)"/><rect class="a" width="2.828" height="2.908" transform="translate(31.142 19.752)"/><rect class="a" width="2.828" height="2.908" transform="translate(36.796 19.752)"/><rect class="a" width="2.828" height="2.908" transform="translate(42.451 19.752)"/><rect class="a" width="2.828" height="2.908" transform="translate(48.106 19.752)"/><rect class="a" width="2.828" height="2.908" transform="translate(53.761 19.752)"/><rect class="a" width="2.828" height="2.908" transform="translate(59.416 19.752)"/><rect class="a" width="2.828" height="2.908" transform="translate(65.07 19.752)"/><rect class="a" width="2.826" height="2.908" transform="translate(70.727 19.752)"/><rect class="a" width="2.826" height="2.908" transform="translate(76.382 19.752)"/><rect class="a" width="2.828" height="2.908" transform="translate(5.695 25.407)"/><rect class="a" width="2.828" height="2.908" transform="translate(11.349 25.407)"/><rect class="a" width="2.826" height="2.908" transform="translate(17.006 25.407)"/><rect class="a" width="2.826" height="2.908" transform="translate(22.661 25.407)"/><rect class="a" width="2.826" height="2.908" transform="translate(28.315 25.407)"/><rect class="a" width="2.826" height="2.908" transform="translate(33.97 25.407)"/><rect class="a" width="2.826" height="2.908" transform="translate(39.625 25.407)"/><rect class="a" width="2.826" height="2.908" transform="translate(45.279 25.407)"/><rect class="a" width="2.826" height="2.908" transform="translate(50.934 25.407)"/><rect class="a" width="2.826" height="2.908" transform="translate(56.589 25.407)"/><rect class="a" width="2.826" height="2.908" transform="translate(62.244 25.407)"/><rect class="a" width="2.828" height="2.908" transform="translate(67.899 25.407)"/><rect class="a" width="2.828" height="2.908" transform="translate(73.553 25.407)"/><rect class="a" width="2.828" height="2.908" transform="translate(79.208 25.407)"/><rect class="a" width="2.826" height="2.909" transform="translate(8.523 31.061)"/><rect class="a" width="2.828" height="2.909" transform="translate(14.178 31.061)"/><rect class="a" width="2.828" height="2.909" transform="translate(19.832 31.061)"/><rect class="a" width="2.828" height="2.909" transform="translate(25.487 31.061)"/><rect class="a" width="2.828" height="2.909" transform="translate(31.142 31.061)"/><rect class="a" width="2.828" height="2.909" transform="translate(36.796 31.061)"/><rect class="a" width="2.828" height="2.909" transform="translate(42.451 31.061)"/><rect class="a" width="2.828" height="2.909" transform="translate(48.106 31.061)"/><rect class="a" width="2.828" height="2.909" transform="translate(53.761 31.061)"/><rect class="a" width="2.828" height="2.909" transform="translate(59.416 31.061)"/><rect class="a" width="2.828" height="2.909" transform="translate(65.07 31.061)"/><rect class="a" width="2.826" height="2.909" transform="translate(70.727 31.061)"/><rect class="a" width="2.826" height="2.909" transform="translate(76.382 31.061)"/><rect class="a" width="2.828" height="2.909" transform="translate(5.695 36.716)"/><rect class="a" width="2.828" height="2.909" transform="translate(11.349 36.716)"/><rect class="a" width="2.826" height="2.909" transform="translate(33.97 36.716)"/><rect class="a" width="2.826" height="2.909" transform="translate(39.625 36.716)"/><rect class="a" width="2.826" height="2.909" transform="translate(45.279 36.716)"/><rect class="a" width="2.826" height="2.909" transform="translate(50.934 36.716)"/><rect class="a" width="2.828" height="2.909" transform="translate(73.553 36.716)"/><rect class="a" width="2.828" height="2.909" transform="translate(67.899 36.716)"/><rect class="a" width="2.828" height="2.909" transform="translate(79.208 36.716)"/><rect class="a" width="14.138" height="2.909" transform="translate(36.796 42.371)"/></g></svg>