<svg xmlns="http://www.w3.org/2000/svg" width="16.783" height="19.181" viewBox="0 0 16.783 19.181"><defs><style>.a{fill:#727272;}</style></defs><path class="a" d="M14.817,0H1.966A1.971,1.971,0,0,0,0,1.976V14.942a1.971,1.971,0,0,0,1.966,1.976H12.841l-.508-1.774,1.228,1.141,1.16,1.074,2.062,1.822V1.976A1.971,1.971,0,0,0,14.817,0Zm-3.7,12.525s-.345-.412-.633-.777a3.026,3.026,0,0,0,1.736-1.141,5.489,5.489,0,0,1-1.1.566,6.311,6.311,0,0,1-1.391.412,6.718,6.718,0,0,1-2.484-.01,8.052,8.052,0,0,1-1.41-.412,5.624,5.624,0,0,1-.7-.326c-.029-.019-.058-.029-.086-.048a.132.132,0,0,1-.038-.029c-.173-.1-.269-.163-.269-.163a2.983,2.983,0,0,0,1.678,1.132c-.288.364-.643.8-.643.8a3.477,3.477,0,0,1-2.925-1.458A12.843,12.843,0,0,1,4.229,5.476,4.742,4.742,0,0,1,6.924,4.469l.1.115A6.47,6.47,0,0,0,4.5,5.84s.211-.115.566-.278a7.2,7.2,0,0,1,2.177-.6A.944.944,0,0,1,7.4,4.939,8.114,8.114,0,0,1,9.341,4.92a7.817,7.817,0,0,1,2.887.921A6.382,6.382,0,0,0,9.84,4.623l.134-.153a4.742,4.742,0,0,1,2.695,1.007,12.843,12.843,0,0,1,1.381,5.591A3.506,3.506,0,0,1,11.115,12.525ZM6.656,8.046a1.068,1.068,0,0,0,0,2.129,1.022,1.022,0,0,0,.978-1.065,1.015,1.015,0,0,0-.978-1.064m3.5,0a1.068,1.068,0,1,0,.978,1.064,1.022,1.022,0,0,0-.978-1.064"/></svg>