<svg xmlns="http://www.w3.org/2000/svg" xmlns:xlink="http://www.w3.org/1999/xlink" width="70.491" height="67.589" viewBox="0 0 70.491 67.589"><defs><style>.a{fill:url(#a);}.b{fill:#fc456a;}.c{fill:url(#b);}</style><linearGradient id="a" x1="0.502" y1="1.001" x2="0.502" y2="0.001" gradientUnits="objectBoundingBox"><stop offset="0" stop-color="#ff4b2e"/><stop offset="1" stop-color="#ff4169"/></linearGradient><linearGradient id="b" x1="0.5" y1="0.998" x2="0.5" y2="0" xlink:href="#a"/></defs><g transform="translate(-769.4 -1807.716)"><path class="a" d="M389.934-215.9v-13.382a9.951,9.951,0,0,0-7.78-9.7l-5.5-6.9a.558.558,0,0,0-.726-.1l-.83.622a.558.558,0,0,0-.1.726l4.305,5.394a10.023,10.023,0,0,0-6.328,2.8l-5.291-7.884a.51.51,0,0,0-.726-.156l-.882.571a.51.51,0,0,0-.156.726l5.6,8.455a9.745,9.745,0,0,0-1.608,5.446V-215.9h2.075v-7.314a9.852,9.852,0,0,0,7.884,3.89,10,10,0,0,0,7.884-3.89v7.314Zm-8.922-5.55a7.924,7.924,0,0,1-8.87-8.87,7.924,7.924,0,0,1,6.795-6.795,7.85,7.85,0,0,1,8.818,8.818A7.769,7.769,0,0,1,381.013-221.45Z" transform="translate(414.27 2075.229)"/><path class="b" d="M431.314-272.464v5.913h-.674a.471.471,0,0,0-.363.156l-4.928,4.928a.489.489,0,0,0-.052.674l4.409,5.913a.558.558,0,0,0,.726.1l.83-.622a.558.558,0,0,0,.1-.726l-3.631-4.824,3.527-3.527h11l3.527,3.527-3.631,4.824a.558.558,0,0,0,.1.726l.83.622a.558.558,0,0,0,.726-.1l4.409-5.913a.485.485,0,0,0-.052-.674l-4.928-4.928a.471.471,0,0,0-.363-.156h-.674v-5.913a8.464,8.464,0,0,0,2.9-7.521,8.533,8.533,0,0,0-7.417-7.366,8.486,8.486,0,0,0-9.44,8.4A8.7,8.7,0,0,0,431.314-272.464Zm8.922,5.913h-6.847v-4.616a8.258,8.258,0,0,0,3.423.726,8.439,8.439,0,0,0,3.423-.726Zm-4.253-18.673a6.369,6.369,0,0,1,7.158,7.158,6.384,6.384,0,0,1-5.5,5.5,6.369,6.369,0,0,1-7.158-7.158A6.332,6.332,0,0,1,435.982-285.224Z" transform="translate(385.702 2095.121)"/><path class="b" d="M364.263-263.238a8.35,8.35,0,0,0,7.521-3.008l21.422-4.305a.538.538,0,0,0,.415-.622l-.207-1.037a.538.538,0,0,0-.622-.415l-19.607,3.942a8.381,8.381,0,0,0,.571-3.008,8.571,8.571,0,0,0-1.764-5.187l21.163-2.645a.608.608,0,0,0,.467-.571l-.1-1.037a.608.608,0,0,0-.571-.467l-22.875,2.853a8.2,8.2,0,0,0-4.72-1.452,8.486,8.486,0,0,0-8.4,9.44A8.29,8.29,0,0,0,364.263-263.238Zm.156-14.731a6.369,6.369,0,0,1,7.158,7.158,6.384,6.384,0,0,1-5.5,5.5,6.369,6.369,0,0,1-7.158-7.158A6.437,6.437,0,0,1,364.419-277.969Z" transform="translate(418.571 2092.327)"/><path class="c" d="M408.689-197.913h-1.919v-13.849a1.04,1.04,0,0,0-1.037-1.037H390.845a1.04,1.04,0,0,0-1.037,1.037v13.849H352.2a7.006,7.006,0,0,0-7,7,7.006,7.006,0,0,0,7,7h56.486a7.006,7.006,0,0,0,7-7A6.973,6.973,0,0,0,408.689-197.913Zm-16.806-12.812h12.812v12.812H391.883Zm16.806,24.69H352.2a4.925,4.925,0,0,1-4.928-4.928,4.893,4.893,0,0,1,4.928-4.928h56.486a4.925,4.925,0,0,1,4.928,4.928A4.893,4.893,0,0,1,408.689-186.035Z" transform="translate(424.2 2059.213)"/></g></svg>