<svg xmlns="http://www.w3.org/2000/svg" xmlns:xlink="http://www.w3.org/1999/xlink" width="69.623" height="67.089" viewBox="0 0 69.623 67.089"><defs><style>.a{fill:url(#a);}</style><linearGradient id="a" x1="0.5" y1="1.209" x2="0.5" y2="2.21" gradientUnits="objectBoundingBox"><stop offset="0" stop-color="#f93b55"/><stop offset="1" stop-color="#ff4169"/></linearGradient></defs><g transform="translate(198.2 46.8)"><g transform="translate(-198.2 -46.8)"><path class="a" d="M-172.981,20.289h-6.636A6.249,6.249,0,0,1-185.41,15.7l-4.766-20.09H-191.5a6.72,6.72,0,0,1-6.7-6.7V-19.53a6.72,6.72,0,0,1,6.7-6.7h18.582c10.256,0,20.392-10.618,25.882-16.29,3.137-3.258,4.163-4.284,5.249-4.284h.664a5.253,5.253,0,0,1,5.249,5.249v15.626a11.538,11.538,0,0,1,7.3,10.679,11.538,11.538,0,0,1-7.3,10.679V11a5.253,5.253,0,0,1-5.249,5.249h-.664c-1.086,0-2.112-1.026-5.249-4.284-5.43-5.671-15.626-16.29-25.882-16.29h-2.715c.121,1.026.121,2.051.181,3.077.06,2.836.181,5.49,1.75,7.964l4.4,7a4.1,4.1,0,0,1-.121,4.223A4.219,4.219,0,0,1-172.981,20.289ZM-187.7-4.387l4.646,19.547a3.811,3.811,0,0,0,3.439,2.715h6.636a2.13,2.13,0,0,0,1.508-1.207,1.881,1.881,0,0,0,.181-1.75l-4.465-6.938c-1.931-3.017-1.991-6.154-2.112-9.17-.06-1.086-.06-2.172-.181-3.2Zm46.093,18.22h.483A2.832,2.832,0,0,0-138.291,11V-5.111a1.471,1.471,0,0,1,0-.724V-24.719a1.471,1.471,0,0,1,0-.724V-41.611a2.832,2.832,0,0,0-2.836-2.836h-.483a29.854,29.854,0,0,0-3.68,3.56c-5.43,5.671-15.385,16.048-26.063,17.014V-6.679c10.679.965,20.633,11.282,26.063,17.014A33.131,33.131,0,0,0-141.609,13.833ZM-177.024-6.8h3.258V-23.814H-191.5a4.3,4.3,0,0,0-4.284,4.284v8.507A4.3,4.3,0,0,0-191.5-6.74l14.48-.06Zm41.146-16.531V-7.222a9.068,9.068,0,0,0,4.887-8.024A9.161,9.161,0,0,0-135.877-23.331Z" transform="translate(198.2 46.8)"/></g></g></svg>