<svg xmlns="http://www.w3.org/2000/svg" width="18.053" height="18.057" viewBox="0 0 18.053 18.057"><defs><style>.a{fill:#727272;}</style></defs><g transform="translate(-0.449 0)"><path class="a" d="M18.456,5.309a6.6,6.6,0,0,0-.42-2.191A4.626,4.626,0,0,0,15.394.476,6.615,6.615,0,0,0,13.2.057C12.237.011,11.93,0,9.479,0S6.72.011,5.757.053a6.6,6.6,0,0,0-2.19.42,4.406,4.406,0,0,0-1.6,1.044,4.446,4.446,0,0,0-1.041,1.6,6.616,6.616,0,0,0-.42,2.19C.459,6.272.449,6.579.449,9.03S.459,11.789.5,12.752a6.6,6.6,0,0,0,.42,2.191,4.625,4.625,0,0,0,2.642,2.642A6.616,6.616,0,0,0,5.754,18c.963.042,1.27.053,3.721.053s2.758-.01,3.721-.053a6.6,6.6,0,0,0,2.19-.42,4.619,4.619,0,0,0,2.642-2.642,6.62,6.62,0,0,0,.42-2.191c.042-.963.053-1.27.053-3.721s0-2.758-.046-3.721ZM16.83,12.681a4.949,4.949,0,0,1-.31,1.676,3,3,0,0,1-1.714,1.714,4.967,4.967,0,0,1-1.676.31c-.952.042-1.238.053-3.647.053s-2.7-.01-3.647-.053a4.947,4.947,0,0,1-1.676-.31A2.778,2.778,0,0,1,3.122,15.4a2.807,2.807,0,0,1-.674-1.037,4.968,4.968,0,0,1-.31-1.676c-.042-.952-.053-1.238-.053-3.647s.01-2.7.053-3.647a4.947,4.947,0,0,1,.31-1.676,2.745,2.745,0,0,1,.677-1.037A2.8,2.8,0,0,1,4.163,2a4.97,4.97,0,0,1,1.676-.31c.952-.042,1.238-.053,3.647-.053s2.7.011,3.647.053A4.949,4.949,0,0,1,14.809,2a2.777,2.777,0,0,1,1.037.674,2.807,2.807,0,0,1,.674,1.037,4.969,4.969,0,0,1,.31,1.676c.042.952.053,1.238.053,3.647s-.011,2.691-.053,3.644Zm0,0"/><path class="a" d="M129.588,124.5a4.639,4.639,0,1,0,4.639,4.639A4.64,4.64,0,0,0,129.588,124.5Zm0,7.647a3.009,3.009,0,1,1,3.009-3.009A3.009,3.009,0,0,1,129.588,132.147Zm0,0" transform="translate(-120.109 -120.108)"/><path class="a" d="M364.616,89.685a1.083,1.083,0,1,1-1.083-1.083A1.083,1.083,0,0,1,364.616,89.685Zm0,0" transform="translate(-349.232 -85.476)"/></g></svg>