<svg xmlns="http://www.w3.org/2000/svg" xmlns:xlink="http://www.w3.org/1999/xlink" width="78.41" height="109.751" viewBox="0 0 78.41 109.751"><defs><style>.a{fill:#242424;}.b{clip-path:url(#a);}</style><clipPath id="a"><rect class="a" width="78.41" height="109.751"/></clipPath></defs><g class="b"><path class="a" d="M70.16,40.189l-1.974-1.974L89.441,16.959,76.426,3.949,55.175,25.2,53.2,23.225,76.426,0,93.39,16.959Z" transform="translate(-14.98 0)"/><path class="a" d="M16.965,93.381,0,76.424,23.237,53.193l1.975,1.974L3.949,76.424,16.965,89.433,38.221,68.177,40.2,70.151Z" transform="translate(0 -14.978)"/><rect class="a" width="2.792" height="7.065" transform="translate(5.565 57.855) rotate(-45.004)"/><rect class="a" width="2.792" height="7.065" transform="translate(10.14 53.28) rotate(-45.004)"/><rect class="a" width="2.792" height="7.064" transform="matrix(0.707, -0.707, 0.707, 0.707, 14.714, 48.705)"/><rect class="a" width="2.791" height="7.064" transform="translate(19.289 44.13) rotate(-44.988)"/><rect class="a" width="2.792" height="7.066" transform="translate(42.16 21.26) rotate(-45.021)"/><rect class="a" width="2.792" height="7.065" transform="translate(46.735 16.685) rotate(-45.012)"/><rect class="a" width="2.792" height="7.066" transform="translate(51.309 12.111) rotate(-45.025)"/><rect class="a" width="2.791" height="7.066" transform="translate(55.884 7.536) rotate(-45.025)"/><path class="a" d="M91.039,98.525h7.492V91.033Z" transform="translate(-25.635 -25.633)"/><path class="a" d="M62.115,82.405a1.39,1.39,0,0,1-.987-.41L15.334,36.2a1.4,1.4,0,0,1,0-1.975l5-4.994a1.4,1.4,0,0,1,1.974,0L68.1,75.027A1.4,1.4,0,0,1,68.1,77L63.1,82a1.39,1.39,0,0,1-.987.41M18.3,35.214l43.82,43.821,3.021-3.02L21.316,32.193Z" transform="translate(-4.203 -8.116)"/><path class="a" d="M69.067,75.458a1.389,1.389,0,0,1-.986-.41l-45.8-45.794a1.4,1.4,0,0,1,0-1.974l4.994-5a1.436,1.436,0,0,1,1.974,0l45.8,45.8a1.395,1.395,0,0,1,0,1.974l-5,5a1.391,1.391,0,0,1-.987.409M25.247,28.267l43.82,43.821,3.022-3.021L28.268,25.246Z" transform="translate(-6.16 -6.164)"/><path class="a" d="M76.021,68.5a1.393,1.393,0,0,1-.987-.409l-45.8-45.8a1.394,1.394,0,0,1,0-1.974l5-5a1.435,1.435,0,0,1,1.974,0L82,61.124A1.393,1.393,0,0,1,82,63.1l-4.992,5a1.4,1.4,0,0,1-.987.41ZM32.2,21.314l43.822,43.82,3.02-3.022L35.22,18.291Z" transform="translate(-8.118 -4.206)"/><path class="a" d="M80.611,96.984V94.191H94.2V80.6H96.99V96.983Z" transform="translate(-22.698 -22.695)"/><path class="a" d="M14.949,31.323a1.394,1.394,0,0,1-.987-.409l-3.5-3.5a1.4,1.4,0,0,1,0-1.975L25.448,10.458a1.4,1.4,0,0,1,1.974,0l3.5,3.5a1.394,1.394,0,0,1,0,1.974L15.936,30.914a1.392,1.392,0,0,1-.987.41M13.423,26.43l1.525,1.523L27.959,14.941l-1.523-1.522Z" transform="translate(-2.83 -2.829)"/><path class="a" d="M10.23,27.188,9.244,26.2A11.994,11.994,0,0,1,26.206,9.241l.986.988Zm7.5-18.668A9.2,9.2,0,0,0,10.3,23.167L23.17,10.3a9.129,9.129,0,0,0-5.443-1.781" transform="translate(-1.614 -1.613)"/></g></svg>