<svg xmlns="http://www.w3.org/2000/svg" xmlns:xlink="http://www.w3.org/1999/xlink" width="64.931" height="69.889" viewBox="0 0 64.931 69.889"><defs><style>.a{fill:url(#a);}.b{fill:url(#b);}.c{fill:url(#c);}.d{fill:url(#d);}.e{fill:url(#e);}.f{fill:url(#f);}</style><linearGradient id="a" x1="0.5" y1="1.001" x2="0.5" gradientUnits="objectBoundingBox"><stop offset="0" stop-color="#ff4b2e"/><stop offset="1" stop-color="#ff4169"/></linearGradient><linearGradient id="b" x1="0.5" y1="1.001" x2="0.5" y2="0" xlink:href="#a"/><linearGradient id="c" x1="0.5" y1="1.001" x2="0.5" y2="0" xlink:href="#a"/><linearGradient id="d" x1="0.501" y1="1" x2="0.501" y2="0" xlink:href="#a"/><linearGradient id="e" x1="0.5" y1="0.998" x2="0.5" y2="0" xlink:href="#a"/><linearGradient id="f" x1="0.501" y1="1" x2="0.501" y2="0" xlink:href="#a"/></defs><g transform="translate(-13.5 -9.9)"><path class="a" d="M76.093,87.092H70.016a1.136,1.136,0,0,0-1.066.853,20.57,20.57,0,0,1-2.985,7.143,1.056,1.056,0,0,0,.16,1.333l4.318,4.318-5.491,5.491-4.318-4.318a1.056,1.056,0,0,0-1.333-.16,22.621,22.621,0,0,1-7.143,2.985A1.089,1.089,0,0,0,51.3,105.8v6.077H43.521V105.8a1.136,1.136,0,0,0-.853-1.066,20.571,20.571,0,0,1-7.143-2.985,1.056,1.056,0,0,0-1.333.16l-4.318,4.318-5.491-5.491L28.7,96.421a1.056,1.056,0,0,0,.16-1.333,22.119,22.119,0,0,1-2.985-7.143,1.089,1.089,0,0,0-1.066-.853H18.732V83.2H16.6v4.958a1.069,1.069,0,0,0,1.066,1.066h6.291a24.926,24.926,0,0,0,2.612,6.291l-4.478,4.478a1.031,1.031,0,0,0,0,1.493l7.037,7.037a1.031,1.031,0,0,0,1.493,0l4.478-4.478a24.926,24.926,0,0,0,6.291,2.612v6.291a1.069,1.069,0,0,0,1.066,1.066h9.916a1.069,1.069,0,0,0,1.066-1.066v-6.291a24.925,24.925,0,0,0,6.291-2.612l4.478,4.478a1.031,1.031,0,0,0,1.493,0l7.037-7.037a1.031,1.031,0,0,0,0-1.493l-4.478-4.478a24.926,24.926,0,0,0,2.612-6.291H77.16a1.069,1.069,0,0,0,1.066-1.066V83.2H76.093Z" transform="translate(-1.447 -34.224)"/><path class="b" d="M61.887,97.487A14.288,14.288,0,0,0,76.174,83.2H74.042a12.155,12.155,0,1,1-24.309,0H47.6A14.288,14.288,0,0,0,61.887,97.487Z" transform="translate(-15.921 -34.224)"/><path class="c" d="M76.3,61.5v5.544H15.632V61.5H13.5v6.61a1.069,1.069,0,0,0,1.066,1.066h62.8a1.069,1.069,0,0,0,1.066-1.066V61.5Z" transform="translate(0 -24.092)"/><path class="d" d="M62.132,12.032H73.221V29.145h2.132V10.966A1.069,1.069,0,0,0,74.287,9.9H61.066A1.069,1.069,0,0,0,60,10.966V29.145h2.132Z" transform="translate(-21.711)"/><path class="e" d="M24.932,38.65c0-8.37,3.732-14.98,11.088-19.618v8.05h2.132V17.166a1.032,1.032,0,0,0-.533-.906.968.968,0,0,0-1.066,0C27.438,21.378,22.8,28.894,22.8,38.7v3.305h2.132Z" transform="translate(-4.342 -2.895)"/><path class="f" d="M99.332,19.02c7.463,4.638,11.088,11.035,11.088,19.618v3.305h2.132V38.638c0-9.862-4.638-17.432-13.754-22.443a1.245,1.245,0,0,0-1.066,0,1.1,1.1,0,0,0-.533.906v9.916h2.132Z" transform="translate(-39.08 -2.883)"/></g></svg>