<svg xmlns="http://www.w3.org/2000/svg" xmlns:xlink="http://www.w3.org/1999/xlink" width="68.028" height="67.978" viewBox="0 0 68.028 67.978"><defs><style>.a{fill:url(#a);}.b{fill:url(#b);}.c{fill:url(#c);}.d{fill:url(#d);}.e{fill:url(#e);}.f{fill:url(#f);}.g{fill:url(#g);}.h{fill:url(#h);}.i{fill:url(#i);}.j{fill:url(#j);}</style><linearGradient id="a" x1="1.092" y1="0.958" x2="0.283" y2="0.1" gradientUnits="objectBoundingBox"><stop offset="0" stop-color="#ff4b2e"/><stop offset="1" stop-color="#ff4169"/></linearGradient><linearGradient id="b" x1="0.587" y1="0.768" x2="0.29" y2="0.209" xlink:href="#a"/><linearGradient id="c" x1="0.585" y1="0.698" x2="0.388" y2="0.153" xlink:href="#a"/><linearGradient id="d" x1="0.689" y1="1.216" x2="0.376" y2="-0.066" xlink:href="#a"/><linearGradient id="e" x1="0.751" y1="1.102" x2="0.314" y2="-0.304" xlink:href="#a"/><linearGradient id="f" x1="0.781" y1="1.063" x2="0.12" y2="0.086" xlink:href="#a"/><linearGradient id="g" x1="0.674" y1="1.265" x2="0.324" y2="-0.265" xlink:href="#a"/><linearGradient id="h" x1="0.672" y1="1.265" x2="0.322" y2="-0.265" xlink:href="#a"/><linearGradient id="i" x1="0.672" y1="1.278" x2="0.322" y2="-0.253" xlink:href="#a"/><linearGradient id="j" x1="0.675" y1="1.273" x2="0.325" y2="-0.257" xlink:href="#a"/></defs><path class="a" d="M-274.162-183.867a1,1,0,0,0-1,1v6.648h-10.3v-5.948a.963.963,0,0,0-.75-.95,23.764,23.764,0,0,1-6.048-2.5.978.978,0,0,0-1.2.15l-4.2,4.2-7.248-7.248,4.2-4.2a.978.978,0,0,0,.15-1.2,23.764,23.764,0,0,1-2.5-6.048.963.963,0,0,0-.95-.75h-6v-10.3h5.948a.963.963,0,0,0,.95-.75,23.764,23.764,0,0,1,2.5-6.048.978.978,0,0,0-.15-1.2l-4.2-4.2,7.248-7.248,4.2,4.2a.978.978,0,0,0,1.2.15,23.762,23.762,0,0,1,6.048-2.5.963.963,0,0,0,.75-.95V-235.5h10.3v6.648a1,1,0,0,0,1,1,1,1,0,0,0,1-1V-236.5a1,1,0,0,0-1-1h-12.3a1,1,0,0,0-1,1v6.2a24.389,24.389,0,0,0-5.148,2.149L-297-232.5a.966.966,0,0,0-1.4,0l-8.7,8.7a.987.987,0,0,0-.3.7.987.987,0,0,0,.3.7l4.349,4.349a27.329,27.329,0,0,0-2.149,5.148H-311a1,1,0,0,0-1,1v12.3a1,1,0,0,0,1,1h6.2a24.389,24.389,0,0,0,2.149,5.148L-307-189.116a.987.987,0,0,0-.3.7.987.987,0,0,0,.3.7l8.7,8.7a.966.966,0,0,0,1.4,0l4.349-4.349a27.329,27.329,0,0,0,5.148,2.149v6.2a1,1,0,0,0,1,1h12.3a1,1,0,0,0,1-1v-7.648C-273.163-183.417-273.612-183.867-274.162-183.867Z" transform="translate(312 239.099)"/><path class="b" d="M-231.05-223.356h1.549a.987.987,0,0,0,.7-.3l6.848-6.848a5.407,5.407,0,0,0,3.2,1,5.589,5.589,0,0,0,5.6-5.6,5.589,5.589,0,0,0-5.6-5.6,5.589,5.589,0,0,0-5.6,5.6,5.407,5.407,0,0,0,1,3.2l-6.548,6.548H-231a1,1,0,0,0-1,1A.961.961,0,0,0-231.05-223.356ZM-218.8-238.7a3.584,3.584,0,0,1,3.6,3.6,3.584,3.584,0,0,1-3.6,3.6,3.73,3.73,0,0,1-2.1-.65.869.869,0,0,0-.3-.55,1.191,1.191,0,0,0-.55-.3,3.73,3.73,0,0,1-.65-2.1A3.616,3.616,0,0,1-218.8-238.7Z" transform="translate(271.987 240.7)"/><path class="c" d="M-232.011-208.4h-6.748a.987.987,0,0,0-.7.3l-5.848,5.848h-11.846a8.65,8.65,0,0,0-8.647,8.647,8.682,8.682,0,0,0,8.647,8.647h1.549a1,1,0,0,0,1-1,1,1,0,0,0-1-1h-1.549a6.645,6.645,0,0,1-6.648-6.648,6.645,6.645,0,0,1,6.648-6.648h12.3a.987.987,0,0,0,.7-.3l5.848-5.848h6.348a5.587,5.587,0,0,0,5.5,4.6,5.589,5.589,0,0,0,5.6-5.6,5.589,5.589,0,0,0-5.6-5.6A5.593,5.593,0,0,0-232.011-208.4Zm5.5-2.6a3.584,3.584,0,0,1,3.6,3.6,3.584,3.584,0,0,1-3.6,3.6,3.584,3.584,0,0,1-3.6-3.6A3.616,3.616,0,0,1-226.513-211Z" transform="translate(288.893 226.845)"/><path class="d" d="M-208.157-185.4a5.644,5.644,0,0,0-5.548,4.8.8.8,0,0,0-.6-.2h-13.8a1,1,0,0,0-1,1,1,1,0,0,0,1,1h13.8a1.072,1.072,0,0,0,.6-.2,5.605,5.605,0,0,0,5.548,4.8,5.589,5.589,0,0,0,5.6-5.6A5.589,5.589,0,0,0-208.157-185.4Zm0,9.2a3.584,3.584,0,0,1-3.6-3.6,3.584,3.584,0,0,1,3.6-3.6,3.584,3.584,0,0,1,3.6,3.6A3.584,3.584,0,0,1-208.157-176.2Z" transform="translate(270.537 213.041)"/><path class="e" d="M-208.157-157.8a5.587,5.587,0,0,0-5.5,4.6h-4.8l-7.4-7.4a.987.987,0,0,0-.7-.3H-228.1a1,1,0,0,0-1,1,1,1,0,0,0,1,1h1.1l7.4,7.4a.987.987,0,0,0,.7.3h5.248a5.587,5.587,0,0,0,5.5,4.6,5.589,5.589,0,0,0,5.6-5.6A5.589,5.589,0,0,0-208.157-157.8Zm0,9.2a3.584,3.584,0,0,1-3.6-3.6,3.584,3.584,0,0,1,3.6-3.6,3.584,3.584,0,0,1,3.6,3.6A3.584,3.584,0,0,1-208.157-148.6Z" transform="translate(270.537 200.787)"/><path class="f" d="M-245.013-168.613a5.407,5.407,0,0,0-3.2,1l-8.4-8.4a.987.987,0,0,0-.7-.3h-9.2A15.935,15.935,0,0,1-282.4-192.206,15.935,15.935,0,0,1-266.506-208.1a1,1,0,0,0,1-1,1,1,0,0,0-1-1A17.908,17.908,0,0,0-284.4-192.206a17.876,17.876,0,0,0,17.894,17.894h8.8l8.1,8.1a5.407,5.407,0,0,0-1,3.2,5.589,5.589,0,0,0,5.6,5.6,5.589,5.589,0,0,0,5.6-5.6A5.589,5.589,0,0,0-245.013-168.613Zm0,9.2a3.584,3.584,0,0,1-3.6-3.6,3.73,3.73,0,0,1,.65-2.1.869.869,0,0,0,.55-.3,1.5,1.5,0,0,0,.3-.55,3.73,3.73,0,0,1,2.1-.65,3.584,3.584,0,0,1,3.6,3.6A3.584,3.584,0,0,1-245.013-159.416Z" transform="translate(298.196 225.395)"/><path class="g" d="M-252.6-176.2a1,1,0,0,0-1,1,1,1,0,0,0,1,1h3.049a1,1,0,0,0,1-1,1,1,0,0,0-1-1Z" transform="translate(282.791 208.44)"/><path class="h" d="M-237.251-176.2H-240.3a1,1,0,0,0-1,1,1,1,0,0,0,1,1h3.049a1,1,0,0,0,1-1A1,1,0,0,0-237.251-176.2Z" transform="translate(276.639 208.44)"/><path class="i" d="M-237.251-160.9H-240.3a1,1,0,0,0-1,1,1,1,0,0,0,1,1h3.049a1,1,0,0,0,1-1A1,1,0,0,0-237.251-160.9Z" transform="translate(276.639 200.787)"/><path class="j" d="M-240.351-208a1,1,0,0,0,1-1,1,1,0,0,0-1-1H-243.4a1,1,0,0,0-1,1,1,1,0,0,0,1,1Z" transform="translate(278.189 225.345)"/></svg>