<svg xmlns="http://www.w3.org/2000/svg" xmlns:xlink="http://www.w3.org/1999/xlink" width="823.125" height="895.391" viewBox="0 0 823.125 895.391"><defs><style>.a{fill:none;}.b{clip-path:url(#a);}.c{fill:#d4d4d4;}.d{clip-path:url(#b);}.e{fill:#272727;}.f{clip-path:url(#c);}.g{clip-path:url(#d);}.h{fill:url(#e);}.i{clip-path:url(#f);}.j{fill:#7e2f2f;}.k{fill:#f93b55;}.l{fill:#fff;}.m{fill:#e53a40;}.n{fill:#3e3e3e;}</style><clipPath id="a"><path class="a" d="M942.875,1519.524a10.58,10.58,0,0,0-5.41,2.577c-3.967,3.794-3.076,10.393-.827,15.4,7.307,16.27,24.668,25.967,33.219,41.617,4.971,9.1,6.621,19.585,8.193,29.833,1.489,9.7,2.964,19.729.518,29.238-2.9,11.289-10.948,20.433-18.757,29.088l99.526,6.856c15.425,1.063,30.88,2.126,46.335,1.656,10.923-.333,22.085-1.5,31.935-6.237-13.042-36.257-1.1-73.6-.125-110.553.122-4.606-.114-9.592-2.984-13.2-2.565-3.221-4.788,12.6-4.841,12.724-2.321,5.51-1.25,2.42-5.578,6.362.535-.487-1.272-3.641-1.612-4.117a8.511,8.511,0,0,0-3.265-2.693c-3.38-1.627-7.391-1.258-11.038-.839-10.744,1.236-21.088,5.708-30.187,11.368-10.154,6.315-18.993,15.808-31.186,18.083-16.221,3.027-31.39-7.972-44.232-18.333-10.458-8.438-21.146-19.806-29.514-30.32-4.068-5.111-7.49-7.857-12.338-12.235-4.135-3.734-9.518-6.54-15-6.541a15.394,15.394,0,0,0-2.838.26" transform="translate(-934.72 -1519.264)"/></clipPath><clipPath id="b"><path class="a" d="M501.833,802.77q-.223.012-.447.029c-23.191,1.666-16.748,34.43-11.85,49.053a108.122,108.122,0,0,1,5.576,32.662c.129,8.645-.756,17.5,1.732,25.776s9.605,16.027,18.246,15.745c5.463-.179,10.425-3.543,13.824-7.823s5.481-9.431,7.519-14.5c7.625-18.98,16.1-41.231,8.216-61.9-6.152-16.131-22.147-39.078-41.469-39.08-.448,0-.894.012-1.345.037M1032.39,550.738c-2.56.366-4.732,2.068-6.5,3.954-18.873,20.127-2.61,54.291-20.268,75.849-11.574,14.13-23.387,26.807-30.358,44.248-6.3,15.765-8.038,33.945-1.6,49.656a35.923,35.923,0,0,0,6.258,10.4c10.729,12.009,30.8,12.01,44.169,3.035,16.393-11,20.781-27.874,23.985-46.122a553.868,553.868,0,0,0,8.033-77.871c.689-21.334,1.3-44.831-16.032-60.4a10.275,10.275,0,0,0-6.651-2.827,7.29,7.29,0,0,0-1.034.073M631.2,527.565c-43.379,74.461-67.026,56.867-105.885,84.025-60.116,42.012-49.768,156.074-4.1,183.079,39.28,23.226,43.057,54.141,37.572,81.292-6.832,33.815,16.135,60.115,41.541,52.943s57.668-14.688,67.666-35.865-2.3-50.21-8.446-58.407-40.3-24.251-42.013-47.819,3.052-28.39,16.4-35.523,158.486-47.819,164.292-40.646-3.415,36.548-3.415,36.548c4.782,9.905,14,29.326,14,48.5,0,20.494-13.316,29.421-20.152,37.572-8.881,10.589-19.811,43.379-12.638,68.655s40.3,20.494,50.21,23.568,19.961,21.825,66.947,15.371c62.165-8.539,108.913-77.013,66.947-130.136-26.983-34.157-51.27-85.383-4.782-134.235,60.457-63.531,46.111-178.3-56.017-206.988-29.11-8.178-70.148-16.5-112.34-16.5-59.9,0-122.123,16.78-155.788,74.566" transform="translate(-483.558 -452.999)"/></clipPath><clipPath id="c"><path class="a" d="M1141.53,1356.951h0m-6.239-11.118c-6.8,2.473-12.906,6.736-17.468,10.176-5.6,4.22-10.271,9.2-14.79,14.018-3.138,3.347-6.1,6.508-9.326,9.4a105.467,105.467,0,0,1-15.379,11.482,70.03,70.03,0,0,1-20.157,8.657,39.4,39.4,0,0,1-21.173-.484c-6.833-2.226-15.344-10.646-19.919-15.171-.965-.955-1.795-1.774-2.455-2.393l-3.509-3.289-4.037,2.613c-.5.325-8.2,4.407-18.549,16.183l9.094,7.349c5.766-6.563,8.127-7.355,12.165-10.382,5.754,5.659,14.53,13.892,23.4,16.782a48.09,48.09,0,0,0,14.9,2.3,56.31,56.31,0,0,0,12.9-1.535,82.207,82.207,0,0,0,23.742-10.129,117.59,117.59,0,0,0,17.18-12.821c3.62-3.244,6.91-6.75,10.091-10.141,4.355-4.643,8.467-9.03,13.221-12.613,3.879-2.923,9-6.523,14.272-8.44a4.646,4.646,0,0,1,2.032-.437.623.623,0,0,1-.211-.1l7.493-9.751a11.892,11.892,0,0,0-7.4-2.441,17.885,17.885,0,0,0-6.121,1.177" transform="translate(-988.53 -1344.657)"/></clipPath><clipPath id="d"><path class="a" d="M956.493,999.11c-7.514,8.539-12.98,13.059-28.539,18.684-26.621,9.624-28.7,38.232-29.869,49.629-.689,6.722-4.595,11.76-9.53,16.069-5.467,4.773-12.933,8.553-14.175,16.392-1.075,6.793,1.969,15.781,8.335,19.116-10.589,3.074-19.128,28.008,1.708,36.206l16.054,18.786c.341,5.465,2.733,15.371,33.132,28.692,0,0-5.123-20.836-13.662-31.424-7.856,1.025-11.9-2.3-14.687-6.148s-12.98-8.2-11.955-14.687,4.782-16.054,4.782-16.054l11.955,6.831,16.419,11.917,5.021-7.988L917.86,1115.52l111.386-106.174c-1.708-6.479-12.3-31.755-32.79-34.829a29.376,29.376,0,0,0-4.364-.331c-17.856,0-28.634,17.01-35.6,24.924" transform="translate(-871.65 -974.186)"/></clipPath><linearGradient id="e" x1="-0.673" y1="2.332" x2="-0.672" y2="2.332" gradientUnits="objectBoundingBox"><stop offset="0" stop-color="#6a428a"/><stop offset="0.999" stop-color="#e53a40"/><stop offset="1" stop-color="#e53a40"/></linearGradient><clipPath id="f"><rect class="a" width="823.125" height="895.391"/></clipPath></defs><g transform="translate(0 0.001)"><g transform="translate(274.642 446.393)"><g class="b"><rect class="c" width="204.11" height="156.998" transform="translate(-1.222 0)"/></g></g><g transform="translate(142.08 133.1)"><g class="d"><rect class="e" width="756.25" height="771.264" transform="translate(-250.706 297.447) rotate(-51.226)"/></g></g><g transform="translate(290.452 395.089)"><g class="f"><rect class="c" width="160.281" height="68.409" transform="translate(0 0)"/></g></g><g transform="translate(256.11 286.237)"><g class="g"><rect class="h" width="282.153" height="270.212" transform="matrix(0.606, -0.796, 0.796, 0.606, -118.186, 144.671)"/></g></g><g transform="translate(0 -0.001)"><g class="i" transform="translate(0 0)"><path class="j" d="M1135.416,1211.718c-5.123,6.49-22.87,32.036-35.85,39.891-.6-5.807.814-13.406.854-16.139.052-3.609-.4-8.323-3.517-10.714-2.273-1.747-5.17-1.273-7.672-.363-5.7,2.075-11.043,5.671-15.868,9.307-8.857,6.677-15.481,15.706-23.714,23.085a111.46,111.46,0,0,1-16.278,12.151,76,76,0,0,1-21.95,9.393,45.427,45.427,0,0,1-24.487-.623c-9.706-3.161-20.578-15.082-24.677-18.924a117.112,117.112,0,0,0-21.518,18.786c-9.905-6.148-22.2,1.367-4.782,23.909-1.366,2.733-4.782,8.881-4.782,8.881s-14.346-15.029-16.054-18.786c2.049-9.222,5.807-23.227,31.083-57.725-2.733-8.539-6.34-17.868,1.708-32.79,10.854-20.124,19.714-29.524,24.407-33.712,2.055-1.834,163.1,44.372,163.1,44.372" transform="translate(-646.238 -824.315)"/><path class="k" d="M1082.886,1323.6a5.657,5.657,0,0,1-4.879-2.784,168.948,168.948,0,0,1-8.785-17.157,5.661,5.661,0,0,1,10.355-4.58,157.316,157.316,0,0,0,8.181,15.985,5.661,5.661,0,0,1-4.872,8.536" transform="translate(-754.719 -914.997)"/><path class="l" d="M1091.954,1328.894a1.882,1.882,0,0,1-1.625-.929,165.087,165.087,0,0,1-8.582-16.767,1.886,1.886,0,0,1,3.449-1.526,161.327,161.327,0,0,0,8.383,16.376,1.887,1.887,0,0,1-1.625,2.845" transform="translate(-763.79 -924.069)"/><path class="k" d="M1100.059,1111.328c34.84-20.494,116.732-24.2,135.26-20.494,10.247,2.05,12.3,4.1,16.4,10.247s12.3,26.642,12.3,45.086c0,4.1,1.025,15.37-13.321,13.321-10.345-1.478-50.552-13.663-75.144,4.782-15.116,11.336-26.372,19.9-32.449,20.835-8.88,1.366-18.786,1.366-28.691-12.3s-18.847-34.6-20.152-42.7c-1.708-10.589,1.857-16.463,5.807-18.786" transform="translate(-772.427 -769.426)"/><path class="l" d="M1270.76,1163.678a4.643,4.643,0,0,1-1.667.96c-2.063.679-4.267.306-6.367.033-4.763-.619-9.439-1.753-14.155-2.646-4.393-.832-8.81-1.544-13.254-2.044a114.518,114.518,0,0,0-14.882-.764,77.46,77.46,0,0,0-15.354,1.724,55.178,55.178,0,0,0-14.671,5.42,47.542,47.542,0,0,0-5.615,3.621l-1.436,1.078c-12.4,9.3-24.1,18.082-28.718,18.792-7.756,1.194-15.4,1.3-23.765-10.239-9.482-13.077-18.075-33.272-19.242-40.5-1.258-7.8.9-12.117,3.346-13.554,33.644-19.791,115.881-24.5,132.99-21.074,8.954,1.79,10.547,3.426,13.844,8.371a47.7,47.7,0,0,1,4.473,9.52,111.642,111.642,0,0,1,4.708,15.764,79.73,79.73,0,0,1,2.1,18.181,15.061,15.061,0,0,1-.773,4.911,5.868,5.868,0,0,1-1.562,2.452" transform="translate(-784.75 -779.235)"/><path class="m" d="M1124.038,2018.568c-20.106-20.776-96.553-50.692-97.324-50.992l-1.182-.46,9.714-14.717c-7.965,4.164-25.625,12.68-31.92,11.472-6.224-1.186-17.981-17.151-28.662-32.611l-1.361-1.967c-5.392-7.75-8.071-13,.152-20.472,11.143-10.128,16.016-23.946,19.574-34.035.722-2.045,1.382-3.916,2.021-5.544,1.032-2.625,2.6-4.192,4.651-4.656,4.544-1.036,10.179,3.707,14.332,7.538l-.1,2.709c-3.662-3.423-9.779-9.142-13.783-8.249-1.371.311-2.417,1.425-3.2,3.407-.631,1.609-1.284,3.456-2,5.478-3.63,10.294-8.6,24.393-20.128,34.869-6.842,6.219-5.392,9.816.152,17.784l1.364,1.972c5.777,8.362,21.121,30.575,27.361,31.762,6.545,1.256,29.663-10.571,34.128-13.2l3.808-2.239-13.009,19.71c10.156,4.009,77.6,31.1,96.873,51.014Z" transform="translate(-683.743 -1316.626)"/><path class="m" d="M1193.967,2027.264l-.532-.832a88.305,88.305,0,0,0-21.774-24.186c-35.484-27.295-80.639-64.084-94.254-84.344-5.219-7.767-6.385-12.487-5.2-21.043a4.752,4.752,0,0,1,2.562-3.844c2.568-1.263,6.565-.381,12.2,2.694l-.244,2.209c-6.988-3.948-9.923-3.618-11.054-3.063a2.765,2.765,0,0,0-1.437,2.287c-1.118,8.05-.072,12.267,4.867,19.618,10.653,15.854,43.09,44.853,93.8,83.862a90.208,90.208,0,0,1,22.252,24.709l.528.826Z" transform="translate(-756.871 -1336.412)"/><path class="m" d="M1463.481,2064.469h-2.049c0-9.044,7.3-27.244,8.976-31.3l-10.936-7.29,17.154-1.559c2.645-13.841,5.785-46.706,4.365-49.864-2.874-6.389-10.37-12.4-16.856-13.69l-.387-2.147c7.25,1.093,15.887,7.826,19.112,15,1.994,4.438-2.237,41.189-4.371,51.856l-.15.75-12.9,1.172,7.513,5.009-.331.782c-.091.216-9.141,21.7-9.141,31.284" transform="translate(-1030.647 -1383.134)"/><path class="m" d="M1420.344,2091.741l-2.046-.12c1.714-29.077,9.682-43.044,16.084-54.267,3.96-6.943,7.1-12.452,7.7-19.728l1.865,1.8c-.949,6.959-4.141,12.555-7.788,18.947-6.3,11.038-14.132,24.774-15.818,53.371" transform="translate(-1001.571 -1424.803)"/><path class="c" d="M1533.643,1122.384a47.7,47.7,0,0,0-4.473-9.519c-3.3-4.945-4.89-6.581-13.844-8.371-4.565-.914-13.79-1.241-25.466-.865,17.284,14.3,33.146,43.071,37.519,60.64.9.15,1.8.3,2.7.417,2.1.273,4.3.646,6.368-.033a4.636,4.636,0,0,0,1.666-.96,5.867,5.867,0,0,0,1.562-2.452,15.055,15.055,0,0,0,.773-4.911,79.709,79.709,0,0,0-2.1-18.181,111.7,111.7,0,0,0-4.708-15.764" transform="translate(-1052.106 -779.25)"/><path class="n" d="M978.162,1570.308a1.879,1.879,0,0,1-1.234-.46c-8.457-7.33-10.163-14.292-8.94-18.364a1.885,1.885,0,1,1,3.611,1.083c-.678,2.26.2,7.843,7.8,14.429a1.886,1.886,0,0,1-1.235,3.313" transform="translate(-683.322 -1094.674)"/><path class="n" d="M977.195,1577.708a1.886,1.886,0,0,1-1.585-2.909c1.411-2.189,4.54-3.466,4.894-3.6a1.886,1.886,0,0,1,1.382,3.51,7.79,7.79,0,0,0-3.106,2.139,1.88,1.88,0,0,1-1.585.864" transform="translate(-688.74 -1109.452)"/><path class="j" d="M1931.277,906.123a14.474,14.474,0,1,1-14.474-14.474,14.474,14.474,0,0,1,14.474,14.474" transform="translate(-1343.383 -629.662)"/><path class="j" d="M1727.348,612.579l4.105-54.954,45.539,31.033Zm7.385-48.155-3.132,41.921,37.867-18.25Z" transform="translate(-1219.815 -393.782)"/><path class="k" d="M2022.644,653.47a47.7,47.7,0,0,0,20.026-4.388c-4.925-31.181-21.746-60.382-51.182-79.889a47.893,47.893,0,0,0,31.156,84.277" transform="translate(-1394.517 -401.951)"/><path class="m" d="M1554.552,720.414c.035-.05.07-.1.1-.154.014-.026.026-.052.04-.079.026-.053.052-.106.073-.16.012-.03.022-.061.032-.092.017-.052.033-.1.046-.159.008-.035.016-.069.022-.1.009-.051.016-.1.021-.155s.007-.076.009-.115,0-.1,0-.15c0-.03,0-.059,0-.088,0-.011,0-.022-.005-.033-.007-.057-.018-.113-.029-.169-.006-.03-.01-.062-.018-.092,0,0,0-.009,0-.013l-10.473-39.514a1.886,1.886,0,0,0-1.083-1.253l-29.041-12.4c-.04-.017-.082-.028-.122-.042s-.06-.024-.092-.033l-.019,0c-.022-.006-.045-.009-.067-.015a1.871,1.871,0,0,0-1.332.173c-.025.013-.051.024-.076.039-.052.031-.1.068-.15.1-.019.014-.04.026-.058.04l0,0c-.044.035-.084.075-.125.114-.023.021-.047.041-.068.064,0,.005-.009.009-.014.013L1488.094,692.1a1.885,1.885,0,0,0-.464,1.647l6.972,35.252c.006.031.016.061.024.092,0,.015,0,.03.009.044s.008.02.01.03a1.948,1.948,0,0,0,.073.2c.007.017.013.034.021.051a1.886,1.886,0,0,0,.286.447c.015.018.032.033.047.05.043.046.087.091.134.132.024.021.05.041.076.061.041.033.084.064.129.094s.061.039.093.058.088.048.133.069.069.033.1.048c.012,0,.022.011.034.016s.043.011.065.019a1.855,1.855,0,0,0,.2.058c.045.01.09.018.135.024.025,0,.048.011.073.013l31.768,3.309a1.725,1.725,0,0,0,.2.011,1.9,1.9,0,0,0,.855-.2l24.792-12.606.012-.007a1.969,1.969,0,0,0,.2-.121c.023-.016.046-.032.068-.049a1.91,1.91,0,0,0,.153-.129c.032-.03.061-.063.091-.095s.079-.084.114-.128c.017-.023.031-.047.048-.07m-4.219-3.831-27.441-8.016-6.911-38.033,24.969,10.658Zm-38.016-45.105,6.862,37.764-21.459,16.078-6.2-31.366ZM1527.863,730l-26.425-2.753,14.4-10.789,5.784-4.334,26.292,7.681Z" transform="translate(-1050.506 -469.988)"/><path class="c" d="M1739.137,1119.947c.711,1.476-3.33,4.9-9.027,7.643s-10.891,3.774-11.6,2.3,3.33-4.9,9.027-7.643,10.891-3.774,11.6-2.3" transform="translate(-1213.515 -790.405)"/><path class="c" d="M1647.278,999.69c1.354.923-.435,5.907-4,11.132s-7.545,8.714-8.9,7.791.435-5.907,4-11.132,7.545-8.714,8.9-7.791" transform="translate(-1153.846 -705.854)"/><path class="c" d="M1516.75,954.52c1.634.122,2.577,5.333,2.105,11.639s-2.177,11.319-3.811,11.2-2.577-5.333-2.106-11.639,2.177-11.319,3.811-11.2" transform="translate(-1068.318 -674.059)"/><path class="m" d="M1868.862,760.936a5.272,5.272,0,1,1-1.575,7.287,5.271,5.271,0,0,1,1.575-7.287" transform="translate(-1318.042 -536.762)"/><path class="m" d="M1760.721,1243.751a9.373,9.373,0,1,1-2.8,12.957,9.373,9.373,0,0,1,2.8-12.957" transform="translate(-1240.348 -877.253)"/><path class="m" d="M2074.423,913.252a14.012,14.012,0,1,1,14.014-14.012,14.029,14.029,0,0,1-14.014,14.012m0-24.251a10.239,10.239,0,1,0,10.24,10.239A10.249,10.249,0,0,0,2074.423,889" transform="translate(-1455.018 -625.128)"/></g></g></g></svg>